<svg width="156" height="30" viewBox="0 0 156 30" fill="none" xmlns="http://www.w3.org/2000/svg">
<path d="M23.9463 15.8604C23.9463 18.5771 23.4766 20.9639 22.5371 23.0205C21.5977 25.0645 20.252 26.6387 18.5 27.7432C16.7607 28.835 14.7549 29.3809 12.4824 29.3809C10.2354 29.3809 8.22949 28.835 6.46484 27.7432C4.71289 26.6387 3.35449 25.0708 2.38965 23.0396C1.4375 21.0083 0.955078 18.666 0.942383 16.0127V14.4512C0.942383 11.7471 1.41846 9.36035 2.37061 7.29102C3.33545 5.22168 4.6875 3.64111 6.42676 2.54932C8.17871 1.44482 10.1846 0.892578 12.4443 0.892578C14.7041 0.892578 16.7036 1.43848 18.4429 2.53027C20.1948 3.60938 21.5469 5.1709 22.499 7.21484C23.4512 9.24609 23.9336 11.6138 23.9463 14.3179V15.8604ZM19.1284 14.4131C19.1284 11.3408 18.5444 8.98584 17.3765 7.34814C16.2212 5.71045 14.5771 4.8916 12.4443 4.8916C10.3623 4.8916 8.73096 5.71045 7.55029 7.34814C6.38232 8.97314 5.78564 11.2773 5.76025 14.2607V15.8604C5.76025 18.9072 6.35059 21.2622 7.53125 22.9253C8.72461 24.5884 10.375 25.4199 12.4824 25.4199C14.6152 25.4199 16.2529 24.6074 17.3955 22.9824C18.5508 21.3574 19.1284 18.9834 19.1284 15.8604V14.4131ZM34.0962 3.38721V8.39551H37.7334V11.8232H34.0962V23.3252C34.0962 24.1123 34.2485 24.6836 34.5532 25.0391C34.8706 25.3818 35.4292 25.5532 36.229 25.5532C36.7622 25.5532 37.3018 25.4897 37.8477 25.3628V28.9429C36.7939 29.2349 35.7783 29.3809 34.8008 29.3809C31.2461 29.3809 29.4688 27.4194 29.4688 23.4966V11.8232H26.0791V8.39551H29.4688V3.38721H34.0962ZM53.5962 29C53.3931 28.6064 53.2153 27.9653 53.063 27.0767C51.5903 28.6128 49.7876 29.3809 47.6548 29.3809C45.5854 29.3809 43.897 28.7905 42.5894 27.6099C41.2817 26.4292 40.6279 24.9692 40.6279 23.23C40.6279 21.0337 41.4404 19.3516 43.0654 18.1836C44.7031 17.0029 47.0391 16.4126 50.0732 16.4126H52.9106V15.0605C52.9106 13.9941 52.6123 13.1436 52.0156 12.5088C51.4189 11.8613 50.5112 11.5376 49.2925 11.5376C48.2388 11.5376 47.3755 11.8042 46.7026 12.3374C46.0298 12.8579 45.6934 13.5244 45.6934 14.3369H41.0659C41.0659 13.207 41.4404 12.1533 42.1895 11.1758C42.9385 10.1855 43.9541 9.41113 45.2363 8.85254C46.5312 8.29395 47.9722 8.01465 49.5591 8.01465C51.9712 8.01465 53.8945 8.62402 55.3291 9.84277C56.7637 11.0488 57.5 12.75 57.5381 14.9463V24.2393C57.5381 26.0928 57.7983 27.5718 58.3188 28.6763V29H53.5962ZM48.5117 25.6675C49.4258 25.6675 50.2827 25.4453 51.0825 25.001C51.895 24.5566 52.5044 23.96 52.9106 23.2109V19.3262H50.416C48.7021 19.3262 47.4136 19.6245 46.5503 20.2212C45.687 20.8179 45.2554 21.6621 45.2554 22.7539C45.2554 23.6426 45.5474 24.3535 46.1313 24.8867C46.728 25.4072 47.5215 25.6675 48.5117 25.6675ZM73.1724 12.623C72.563 12.5215 71.9346 12.4707 71.2871 12.4707C69.167 12.4707 67.7388 13.2832 67.0024 14.9082V29H62.375V8.39551H66.793L66.9072 10.6997C68.0244 8.90967 69.5732 8.01465 71.5537 8.01465C72.2139 8.01465 72.7598 8.10352 73.1914 8.28125L73.1724 12.623ZM84.7886 29.3809C81.856 29.3809 79.4756 28.4604 77.6475 26.6196C75.832 24.7661 74.9243 22.3032 74.9243 19.231V18.6597C74.9243 16.603 75.3179 14.7686 76.105 13.1562C76.9048 11.5312 78.022 10.2681 79.4565 9.3667C80.8911 8.46533 82.4907 8.01465 84.2554 8.01465C87.061 8.01465 89.2256 8.90967 90.749 10.6997C92.2852 12.4897 93.0532 15.0225 93.0532 18.2979V20.1641H79.5898C79.7295 21.8652 80.2944 23.2109 81.2847 24.2012C82.2876 25.1914 83.5444 25.6865 85.0552 25.6865C87.1753 25.6865 88.9019 24.8296 90.2349 23.1157L92.7295 25.4961C91.9043 26.7275 90.7998 27.686 89.416 28.3716C88.0449 29.0444 86.5024 29.3809 84.7886 29.3809ZM84.2363 11.728C82.9668 11.728 81.9385 12.1724 81.1514 13.061C80.377 13.9497 79.8818 15.1875 79.666 16.7744H88.4829V16.4316C88.3813 14.8828 87.9688 13.7148 87.2451 12.9277C86.5215 12.1279 85.5186 11.728 84.2363 11.728ZM108.973 29C108.77 28.6064 108.592 27.9653 108.44 27.0767C106.967 28.6128 105.165 29.3809 103.032 29.3809C100.962 29.3809 99.2739 28.7905 97.9663 27.6099C96.6587 26.4292 96.0049 24.9692 96.0049 23.23C96.0049 21.0337 96.8174 19.3516 98.4424 18.1836C100.08 17.0029 102.416 16.4126 105.45 16.4126H108.288V15.0605C108.288 13.9941 107.989 13.1436 107.393 12.5088C106.796 11.8613 105.888 11.5376 104.669 11.5376C103.616 11.5376 102.752 11.8042 102.08 12.3374C101.407 12.8579 101.07 13.5244 101.07 14.3369H96.4429C96.4429 13.207 96.8174 12.1533 97.5664 11.1758C98.3154 10.1855 99.3311 9.41113 100.613 8.85254C101.908 8.29395 103.349 8.01465 104.936 8.01465C107.348 8.01465 109.271 8.62402 110.706 9.84277C112.141 11.0488 112.877 12.75 112.915 14.9463V24.2393C112.915 26.0928 113.175 27.5718 113.696 28.6763V29H108.973ZM103.889 25.6675C104.803 25.6675 105.66 25.4453 106.459 25.001C107.272 24.5566 107.881 23.96 108.288 23.2109V19.3262H105.793C104.079 19.3262 102.791 19.6245 101.927 20.2212C101.064 20.8179 100.632 21.6621 100.632 22.7539C100.632 23.6426 100.924 24.3535 101.508 24.8867C102.105 25.4072 102.898 25.6675 103.889 25.6675Z" fill="#373737"/>
<path d="M120.646 24.125C121.51 24.125 122.176 24.3726 122.646 24.8677C123.116 25.3501 123.351 25.9595 123.351 26.6958C123.351 27.4194 123.116 28.0225 122.646 28.5049C122.176 28.9746 121.51 29.2095 120.646 29.2095C119.821 29.2095 119.167 28.9746 118.685 28.5049C118.203 28.0352 117.961 27.4321 117.961 26.6958C117.961 25.9595 118.196 25.3501 118.666 24.8677C119.136 24.3726 119.796 24.125 120.646 24.125ZM133.577 29H128.949V8.39551H133.577V29ZM128.664 3.04443C128.664 2.3335 128.886 1.74316 129.33 1.27344C129.787 0.803711 130.435 0.568848 131.272 0.568848C132.11 0.568848 132.758 0.803711 133.215 1.27344C133.672 1.74316 133.9 2.3335 133.9 3.04443C133.9 3.74268 133.672 4.32666 133.215 4.79639C132.758 5.25342 132.11 5.48193 131.272 5.48193C130.435 5.48193 129.787 5.25342 129.33 4.79639C128.886 4.32666 128.664 3.74268 128.664 3.04443ZM142.927 8.39551L143.06 10.7759C144.583 8.93506 146.583 8.01465 149.059 8.01465C153.35 8.01465 155.533 10.4712 155.609 15.3843V29H150.982V15.6509C150.982 14.3433 150.696 13.3784 150.125 12.7563C149.566 12.1216 148.646 11.8042 147.364 11.8042C145.498 11.8042 144.107 12.6484 143.193 14.3369V29H138.566V8.39551H142.927Z" fill="url(#paint0_linear_702_728)"/>
<defs>
<linearGradient id="paint0_linear_702_728" x1="78.5" y1="-7" x2="78.5" y2="39" gradientUnits="userSpaceOnUse">
<stop stop-color="#2B7AC1"/>
<stop offset="1" stop-color="#3AB26F"/>
</linearGradient>
</defs>
</svg>
